<?xml version="1.0" encoding="UTF-8"?>
<svg xmlns="http://www.w3.org/2000/svg" xmlns:xlink="http://www.w3.org/1999/xlink" width="16px" height="16px" viewBox="0 0 16 16" version="1.1">
<g id="surface1">
<path style=" stroke:none;fill-rule:evenodd;fill:rgb(100%,100%,100%);fill-opacity:1;" d="M 8.691406 5.296875 L 8.691406 1.71875 L 13.414062 4.289062 L 8.863281 6.761719 C 8.367188 7.03125 7.769531 7.03125 7.273438 6.761719 L 2.664062 4.253906 L 7.328125 1.71875 L 7.328125 5.296875 C 7.328125 5.546875 7.53125 5.75 7.785156 5.75 L 8.238281 5.75 C 8.488281 5.75 8.691406 5.546875 8.691406 5.296875 M 5.203125 8.785156 L 1.859375 10.570312 L 1.859375 5.367188 L 6.460938 7.867188 C 6.996094 8.15625 7.328125 8.71875 7.328125 9.328125 L 7.328125 14.28125 L 2.601562 11.710938 L 5.847656 9.984375 C 6.179688 9.808594 6.300781 9.394531 6.121094 9.0625 C 5.945312 8.734375 5.535156 8.609375 5.203125 8.785156 M 10.042969 8.863281 L 9.828125 9.261719 C 9.707031 9.484375 9.789062 9.757812 10.011719 9.878906 L 13.414062 11.710938 L 8.691406 14.28125 L 8.691406 9.394531 C 8.691406 8.785156 9.023438 8.222656 9.558594 7.929688 L 14.160156 5.429688 L 14.160156 10.570312 L 10.65625 8.679688 C 10.4375 8.5625 10.164062 8.644531 10.042969 8.863281 M 7.320312 0.175781 L 1.253906 3.472656 C 0.789062 3.726562 0.5 4.210938 0.5 4.738281 L 0.5 11.261719 C 0.5 11.789062 0.789062 12.273438 1.253906 12.527344 L 7.320312 15.824219 C 7.75 16.058594 8.269531 16.058594 8.695312 15.824219 L 14.765625 12.527344 C 15.230469 12.273438 15.519531 11.789062 15.519531 11.261719 L 15.519531 4.738281 C 15.519531 4.210938 15.230469 3.726562 14.765625 3.472656 L 8.695312 0.175781 C 8.269531 -0.0585938 7.75 -0.0585938 7.320312 0.175781 "/>
</g>
</svg>
